<svg width="32" height="32" viewBox="0 0 32 32" fill="none" xmlns="http://www.w3.org/2000/svg">
<circle cx="16" cy="16" r="16" transform="matrix(-1 0 0 1 32 0)" fill="#EEEEEE"/>
<path d="M14.6 21.2C14.6 20.36 14.4467 19.5867 14.14 18.88C13.8333 18.16 13.42 17.5933 12.9 17.18C12.3667 16.7667 11.7933 16.56 11.18 16.56V15.64C11.7933 15.64 12.3667 15.4333 12.9 15.02C13.42 14.6067 13.8333 14.0467 14.14 13.34C14.4467 12.62 14.6 11.84 14.6 11H13.24C13.24 11.8133 13.0667 12.56 12.72 13.24C12.3733 13.9067 11.9 14.44 11.3 14.84C10.7 15.24 10.0467 15.44 9.34 15.44V16.76C10.0467 16.76 10.7 16.96 11.3 17.36C11.9 17.76 12.3733 18.3 12.72 18.98C13.0667 19.6467 13.24 20.3867 13.24 21.2H14.6ZM23 15.44H9.98V16.76H23V15.44Z" fill="#222222"/>
</svg>
