<svg width="30" height="30" viewBox="0 0 30 30" fill="none" xmlns="http://www.w3.org/2000/svg">
<circle cx="15" cy="15" r="15" fill="#444444"/>
<path d="M16.3125 19.875C16.3125 19.0875 16.4563 18.3625 16.7438 17.7C17.0313 17.025 17.4188 16.4938 17.9063 16.1063C18.4063 15.7188 18.9438 15.525 19.5188 15.525V14.6625C18.9438 14.6625 18.4063 14.4688 17.9063 14.0812C17.4188 13.6938 17.0313 13.1688 16.7438 12.5063C16.4563 11.8312 16.3125 11.1 16.3125 10.3125H17.5875C17.5875 11.075 17.75 11.775 18.075 12.4125C18.4 13.0375 18.8438 13.5375 19.4063 13.9125C19.9688 14.2875 20.5813 14.475 21.2438 14.475V15.7125C20.5813 15.7125 19.9688 15.9 19.4063 16.275C18.8438 16.65 18.4 17.1563 18.075 17.7938C17.75 18.4188 17.5875 19.1125 17.5875 19.875H16.3125ZM8.4375 14.475H20.6438V15.7125H8.4375V14.475Z" fill="white"/>
</svg>
