<svg width="32" height="32" viewBox="0 0 32 32" fill="none" xmlns="http://www.w3.org/2000/svg">
<circle cx="16" cy="16" r="16" fill="#EEEEEE"/>
<path d="M17.4 21.2C17.4 20.36 17.5533 19.5867 17.86 18.88C18.1667 18.16 18.58 17.5933 19.1 17.18C19.6333 16.7667 20.2067 16.56 20.82 16.56V15.64C20.2067 15.64 19.6333 15.4333 19.1 15.02C18.58 14.6067 18.1667 14.0467 17.86 13.34C17.5533 12.62 17.4 11.84 17.4 11H18.76C18.76 11.8133 18.9333 12.56 19.28 13.24C19.6267 13.9067 20.1 14.44 20.7 14.84C21.3 15.24 21.9533 15.44 22.66 15.44V16.76C21.9533 16.76 21.3 16.96 20.7 17.36C20.1 17.76 19.6267 18.3 19.28 18.98C18.9333 19.6467 18.76 20.3867 18.76 21.2H17.4ZM9 15.44H22.02V16.76H9V15.44Z" fill="#222222"/>
</svg>
